<svg xmlns="http://www.w3.org/2000/svg" xmlns:xlink="http://www.w3.org/1999/xlink" width="864" height="312"><defs><path id="a" d="M323.1344 194.4199v-5.5844h17.8563v5.2397h4.964v-5.2397h16.0637v-4.6882h-16.0638v-5.4465h-5.0328v5.4465h-17.7874v-5.4465h-5.1018v5.4465h-16.1327v4.6882h16.1327v5.5844h5.1018zm-9.0316 46.4678c1.5168-.2069 2.7578-.8963 3.654-1.9305 2.7577-3.1713 3.5161-9.1694 3.5161-17.029 0-6.067-.6205-11.996-4.0676-17.6494 2.5509-1.9304 4.9639-3.9987 6.8254-6.136l-4.2056-2.344c-1.3788 1.6546-3.2403 3.3092-5.3086 5.0328-1.7925-2.1372-4.2056-4.1366-7.1701-6.067l-3.3093 2.6198c2.8267 1.9304 5.1707 3.9298 6.8254 6.067-3.2403 2.1373-6.8254 4.0677-10.4794 5.6534 1.0342.8963 2.413 2.344 3.1025 3.3782 3.3092-1.5857 6.6875-3.3782 9.8588-5.5154 1.1031 2.0683 1.9305 4.1366 2.413 6.3427-3.3782 4.6882-9.9278 9.859-15.5122 12.134 1.172 1.0342 2.482 2.6888 3.1025 3.9298 4.4123-2.413 9.3763-6.4117 13.0992-10.5483.069 1.0342.069 1.9994.069 2.8956 0 6.8944-.6206 11.8583-2.2062 13.8576-.5516.6895-1.172 1.0342-2.2062 1.1031-1.4478.2068-4.0677.2068-7.1701 0 .8962 1.31 1.5167 3.1025 1.5857 4.5503 2.8266.1379 5.3086.1379 7.5837-.3447zm10.893.8962c10.2726-6.4117 15.0986-14.2023 17.2359-21.924 3.5161 9.859 9.1005 17.4427 17.2358 21.7172.7584-1.3789 2.2751-3.2403 3.3782-4.2055-9.4452-4.1366-15.2364-13.1682-18.27-24.6818h17.5117v-4.826h-18.0632V195.454h-4.826v9.9968c0 .8273 0 1.5857-.069 2.413h-15.9948v4.826h15.5812c-1.172 8.48-4.964 18.1321-17.4427 25.7848 1.241.8274 2.8267 2.2062 3.723 3.3093zm30.542-34.8853l3.585-2.8267c-1.8615-2.5509-5.998-5.998-9.5831-8.3421l-3.4472 2.6198c3.585 2.413 7.5838 5.9981 9.4452 8.549zm40.4007 34.6095v-13.7886l6.067-1.1031-.2757-4.4124-5.7913.9652v-36.6089h5.0329v-4.6881H369.809v4.6881h4.6192v39.9872c-1.8615.2068-3.654.4826-5.1707.6894l1.103 5.0328c5.7913-1.0341 13.0993-2.275 20.5452-3.654v12.8924h5.0328zm6.7565.138c5.0328-3.5162 9.652-8.1354 13.6507-13.9266 3.4472 5.5844 7.6527 10.0657 12.8235 13.375.8273-1.241 2.413-3.0335 3.585-3.9987-5.5154-3.2404-9.9967-8.0664-13.5128-14.0645 5.3086-9.3762 9.0315-21.1655 10.893-35.9194l-3.1025-.8963-.8962.2069h-24.9575v4.826h3.3093c1.9993 12.065 4.826 22.8202 9.1694 31.645-4.0676 6.5496-8.9626 11.5824-14.2712 14.8917 1.172.8963 2.5509 2.551 3.3093 3.8608zm-11.7893-45.5026H379.392v-9.5832h11.5136v9.5832zm25.6469 21.5792c-3.5161-7.6527-5.7913-16.6153-7.377-26.4742h15.5812c-1.5857 10.1346-4.4124 19.0283-8.2042 26.4742zm-25.647-7.17h-11.5135v-9.928h11.5136v9.928zm-11.5135 15.2364V214.965h11.5136v9.0315c-4.0677.6205-7.9285 1.241-11.5136 1.7926z"/></defs><g fill="none" fill-rule="nonzero"><path fill="#000" d="M2.3 2.3h859.5v307.5H2.3z"/><path fill="#D2D2D2" d="M4.5 4.5h855v303H4.5V4.5zM0 312h864V0H0v312z"/><path fill="#D2D2D2" d="M5.2 4.9h854.3v302.8H5.2V4.9zM.7 312.1H864V.4H.7v311.7z"/><use fill="#000" xlink:href="#a"/><use fill="#FFF" xlink:href="#a"/><path fill="#FFF" d="M354.108 156v-13.516h-19.096V80.236h19.096V66.72h-53.816v13.516h19.096v62.248h-19.096V156h53.816zm34.968 0v-35.092h15.376c4.464 0 8.5147-.6407 12.152-1.922 3.6373-1.2813 6.758-3.1 9.362-5.456 2.604-2.356 4.6087-5.208 6.014-8.556 1.4053-3.348 2.108-7.0473 2.108-11.098 0-4.1333-.7027-7.874-2.108-11.222s-3.3893-6.2-5.952-8.556c-2.5627-2.356-5.6833-4.1747-9.362-5.456-3.6787-1.2813-7.75-1.922-12.214-1.922h-30.876V156h15.5zm15.376-48.236h-15.376v-27.9h15.376c4.2987 0 7.688 1.2813 10.168 3.844 2.48 2.5627 3.72 5.952 3.72 10.168 0 4.216-1.24 7.5847-3.72 10.106-2.48 2.5213-5.8693 3.782-10.168 3.782zM464.344 156v-37.82h37.448v-14.26h-37.696V80.98h40.92V66.72H448.72V156h15.624zm86.056 1.24c4.6293 0 8.804-.62 12.524-1.86 3.72-1.24 6.9027-2.976 9.548-5.208 2.6453-2.232 4.6913-4.9187 6.138-8.06 1.4467-3.1413 2.17-6.6547 2.17-10.54 0-6.8613-1.9427-12.6273-5.828-17.298-3.8853-4.6707-9.548-8.0393-16.988-10.106l-9.92-2.728c-7.192-2.0667-10.788-6.076-10.788-12.028 0-3.1413 1.1573-5.6627 3.472-7.564s5.4973-2.852 9.548-2.852c3.8027 0 6.944.9507 9.424 2.852 2.48 1.9013 3.8027 4.5467 3.968 7.936h15.748c-.4133-7.6053-3.2033-13.578-8.37-17.918-5.1667-4.34-11.966-6.51-20.398-6.51-4.464 0-8.4733.5787-12.028 1.736-3.5547 1.1573-6.572 2.8313-9.052 5.022-2.48 2.1907-4.402 4.8153-5.766 7.874-1.364 3.0587-2.046 6.448-2.046 10.168 0 13.4747 7.688 22.32 23.064 26.536l9.424 2.728c3.472 1.0747 6.1587 2.728 8.06 4.96 1.9013 2.232 2.852 4.8773 2.852 7.936 0 3.472-1.2607 6.2413-3.782 8.308s-6.0553 3.1-10.602 3.1c-4.3813 0-7.9153-1.0127-10.602-3.038-2.6867-2.0253-4.1127-4.8153-4.278-8.37H520.02c.1653 3.8027 1.0127 7.2333 2.542 10.292 1.5293 3.0587 3.6167 5.6833 6.262 7.874 2.6453 2.1907 5.8073 3.8647 9.486 5.022 3.6787 1.1573 7.7087 1.736 12.09 1.736z"/><g><path fill="#4A9EA1" d="M70.516 207.135l88.182 50.912 88.182-50.912V105.31l-88.182-50.908-88.182 50.912z"/><path fill="#63D3D7" d="M149.5955 66.6646l-63.9348 36.9138a15.2722 15.2722 0 010 3.4165l63.9388 36.9138c5.3911-3.978 12.7452-3.978 18.1363 0l63.9388-36.9142a15.2277 15.2277 0 010-3.416l-63.9352-36.914c-5.3911 3.9781-12.7456 3.9781-18.1371 0h-.0068zm88.2176 50.5265l-64.0064 37.3251c.7494 6.658-2.9279 13.0268-9.0683 15.7069l.0718 73.4172a15.2683 15.2683 0 012.9585 1.708l63.9388-36.9135c-.7494-6.658 2.9279-13.0272 9.0683-15.7073v-73.8269a15.2726 15.2726 0 01-2.959-1.708l-.0037-.0015zm-158.23.4103a15.2684 15.2684 0 01-2.9585 1.7085v73.8269c6.1405 2.68 9.8177 9.0489 9.0683 15.7068l63.9348 36.9139a15.2738 15.2738 0 012.959-1.7085v-73.827c-6.1404-2.6799-9.8177-9.0488-9.0683-15.7068l-63.9348-36.9154-.0005.0016z"/><g fill="#000"><path fill-opacity=".251" d="M158.699 258.047l88.182-50.912V105.31l-88.182 50.912z"/><path fill-opacity=".039" d="M158.699 258.047V156.222L70.517 105.31v101.825z"/><path fill-opacity=".13" d="M70.517 105.31l88.181 50.912 88.182-50.912-88.182-50.912z"/></g></g></g></svg>